<svg width="619" height="286" viewBox="0 0 619 286" fill="none" xmlns="http://www.w3.org/2000/svg">
<path d="M81.4248 229.933H618.334V22.5323H81.4248V229.933Z" fill="white"/>
<mask id="mask0_305_35" style="mask-type:luminance" maskUnits="userSpaceOnUse" x="81" y="22" width="538" height="208">
<path d="M618.333 22.5323H81.4248V229.933H618.333V22.5323Z" fill="white"/>
</mask>
<g mask="url(#mask0_305_35)">
<path d="M105.83 229.933V22.5323" stroke="#808080" stroke-width="1.33333" stroke-dasharray="1.33 2.2"/>
</g>
<path d="M105.83 229.933V234.6Z" fill="#808080"/>
<path d="M105.83 229.933V234.6" stroke="#808080" stroke-width="1.06667"/>
<path d="M105.824 241.182C104.809 241.182 104.046 241.682 103.533 242.682C103.023 243.68 102.767 245.182 102.767 247.189C102.767 249.187 103.023 250.686 103.533 251.686C104.046 252.686 104.809 253.186 105.824 253.186C106.847 253.186 107.613 252.686 108.124 251.686C108.636 250.686 108.892 249.187 108.892 247.189C108.892 245.182 108.636 243.68 108.124 242.682C107.613 241.682 106.847 241.182 105.824 241.182ZM105.824 239.62C107.459 239.62 108.708 240.267 109.571 241.561C110.433 242.852 110.864 244.728 110.864 247.189C110.864 249.643 110.433 251.517 109.571 252.811C108.708 254.102 107.459 254.748 105.824 254.748C104.19 254.748 102.942 254.102 102.08 252.811C101.217 251.517 100.786 249.643 100.786 247.189C100.786 244.728 101.217 242.852 102.08 241.561C102.942 240.267 104.19 239.62 105.824 239.62Z" fill="#808080"/>
<mask id="mask1_305_35" style="mask-type:luminance" maskUnits="userSpaceOnUse" x="81" y="22" width="538" height="208">
<path d="M618.333 22.5323H81.4248V229.933H618.333V22.5323Z" fill="white"/>
</mask>
<g mask="url(#mask1_305_35)">
<path d="M204.688 229.933V22.5323" stroke="#808080" stroke-width="1.33333" stroke-dasharray="1.33 2.2"/>
</g>
<path d="M204.688 229.933V234.6Z" fill="#808080"/>
<path d="M204.688 229.933V234.6" stroke="#808080" stroke-width="1.06667"/>
<path d="M195.801 252.804H202.685V254.464H193.429V252.804C194.177 252.029 195.196 250.99 196.488 249.686C197.782 248.379 198.594 247.537 198.926 247.157C199.557 246.449 199.997 245.849 200.247 245.357C200.5 244.866 200.626 244.382 200.626 243.907C200.626 243.132 200.354 242.501 199.81 242.014C199.266 241.524 198.558 241.279 197.685 241.279C197.066 241.279 196.413 241.387 195.726 241.601C195.04 241.816 194.307 242.142 193.526 242.579V240.586C194.319 240.267 195.061 240.026 195.751 239.864C196.442 239.701 197.075 239.62 197.647 239.62C199.158 239.62 200.362 239.998 201.26 240.754C202.158 241.508 202.607 242.517 202.607 243.779C202.607 244.379 202.494 244.948 202.269 245.486C202.046 246.021 201.638 246.653 201.044 247.382C200.882 247.572 200.364 248.118 199.491 249.02C198.62 249.922 197.39 251.183 195.801 252.804Z" fill="#808080"/>
<path d="M211.044 241.182C210.029 241.182 209.266 241.682 208.753 242.682C208.243 243.68 207.988 245.182 207.988 247.189C207.988 249.187 208.243 250.686 208.753 251.686C209.266 252.686 210.029 253.186 211.044 253.186C212.067 253.186 212.833 252.686 213.344 251.686C213.856 250.686 214.113 249.187 214.113 247.189C214.113 245.182 213.856 243.68 213.344 242.682C212.833 241.682 212.067 241.182 211.044 241.182ZM211.044 239.62C212.679 239.62 213.928 240.267 214.791 241.561C215.653 242.852 216.084 244.728 216.084 247.189C216.084 249.643 215.653 251.517 214.791 252.811C213.928 254.102 212.679 254.748 211.044 254.748C209.411 254.748 208.163 254.102 207.3 252.811C206.438 251.517 206.006 249.643 206.006 247.189C206.006 244.728 206.438 242.852 207.3 241.561C208.163 240.267 209.411 239.62 211.044 239.62Z" fill="#808080"/>
<mask id="mask2_305_35" style="mask-type:luminance" maskUnits="userSpaceOnUse" x="81" y="22" width="538" height="208">
<path d="M618.333 22.5323H81.4248V229.933H618.333V22.5323Z" fill="white"/>
</mask>
<g mask="url(#mask2_305_35)">
<path d="M303.546 229.933V22.5323" stroke="#808080" stroke-width="1.33333" stroke-dasharray="1.33 2.2"/>
</g>
<path d="M303.546 229.933V234.6Z" fill="#808080"/>
<path d="M303.546 229.933V234.6" stroke="#808080" stroke-width="1.06667"/>
<path d="M298.381 241.601L293.4 249.386H298.381V241.601ZM297.862 239.882H300.344V249.386H302.425V251.026H300.344V254.464H298.381V251.026H291.8V249.123L297.862 239.882Z" fill="#808080"/>
<path d="M309.903 241.182C308.888 241.182 308.125 241.682 307.612 242.682C307.102 243.68 306.846 245.182 306.846 247.189C306.846 249.187 307.102 250.686 307.612 251.686C308.125 252.686 308.888 253.186 309.903 253.186C310.926 253.186 311.692 252.686 312.203 251.686C312.715 250.686 312.971 249.187 312.971 247.189C312.971 245.182 312.715 243.68 312.203 242.682C311.692 241.682 310.926 241.182 309.903 241.182ZM309.903 239.62C311.538 239.62 312.787 240.267 313.65 241.561C314.512 242.852 314.943 244.728 314.943 247.189C314.943 249.643 314.512 251.517 313.65 252.811C312.787 254.102 311.538 254.748 309.903 254.748C308.269 254.748 307.021 254.102 306.159 252.811C305.296 251.517 304.865 249.643 304.865 247.189C304.865 244.728 305.296 242.852 306.159 241.561C307.021 240.267 308.269 239.62 309.903 239.62Z" fill="#808080"/>
<mask id="mask3_305_35" style="mask-type:luminance" maskUnits="userSpaceOnUse" x="81" y="22" width="538" height="208">
<path d="M618.333 22.5323H81.4248V229.933H618.333V22.5323Z" fill="white"/>
</mask>
<g mask="url(#mask3_305_35)">
<path d="M402.405 229.933V22.5323" stroke="#808080" stroke-width="1.33333" stroke-dasharray="1.33 2.2"/>
</g>
<path d="M402.405 229.933V234.6Z" fill="#808080"/>
<path d="M402.405 229.933V234.6" stroke="#808080" stroke-width="1.06667"/>
<path d="M396.283 246.389C395.397 246.389 394.695 246.692 394.177 247.298C393.66 247.902 393.402 248.731 393.402 249.786C393.402 250.833 393.66 251.663 394.177 252.273C394.695 252.881 395.397 253.186 396.283 253.186C397.168 253.186 397.869 252.881 398.386 252.273C398.903 251.663 399.161 250.833 399.161 249.786C399.161 248.731 398.903 247.902 398.386 247.298C397.869 246.692 397.168 246.389 396.283 246.389ZM400.199 240.204V242.001C399.703 241.768 399.203 241.59 398.699 241.467C398.194 241.342 397.694 241.279 397.199 241.279C395.896 241.279 394.902 241.719 394.214 242.598C393.529 243.477 393.137 244.805 393.039 246.582C393.422 246.016 393.904 245.581 394.483 245.279C395.064 244.977 395.703 244.826 396.399 244.826C397.863 244.826 399.02 245.271 399.87 246.161C400.72 247.048 401.145 248.256 401.145 249.786C401.145 251.283 400.703 252.486 399.817 253.392C398.932 254.296 397.754 254.748 396.283 254.748C394.595 254.748 393.306 254.102 392.414 252.811C391.522 251.517 391.077 249.643 391.077 247.189C391.077 244.884 391.624 243.047 392.717 241.676C393.811 240.305 395.279 239.62 397.12 239.62C397.616 239.62 398.116 239.669 398.62 239.767C399.125 239.865 399.651 240.011 400.199 240.204Z" fill="#808080"/>
<path d="M408.761 241.182C407.746 241.182 406.983 241.682 406.47 242.682C405.96 243.68 405.704 245.182 405.704 247.189C405.704 249.187 405.96 250.686 406.47 251.686C406.983 252.686 407.746 253.186 408.761 253.186C409.784 253.186 410.55 252.686 411.061 251.686C411.573 250.686 411.829 249.187 411.829 247.189C411.829 245.182 411.573 243.68 411.061 242.682C410.55 241.682 409.784 241.182 408.761 241.182ZM408.761 239.62C410.396 239.62 411.645 240.267 412.508 241.561C413.37 242.852 413.801 244.728 413.801 247.189C413.801 249.643 413.37 251.517 412.508 252.811C411.645 254.102 410.396 254.748 408.761 254.748C407.127 254.748 405.879 254.102 405.017 252.811C404.154 251.517 403.723 249.643 403.723 247.189C403.723 244.728 404.154 242.852 405.017 241.561C405.879 240.267 407.127 239.62 408.761 239.62Z" fill="#808080"/>
<mask id="mask4_305_35" style="mask-type:luminance" maskUnits="userSpaceOnUse" x="81" y="22" width="538" height="208">
<path d="M618.333 22.5323H81.4248V229.933H618.333V22.5323Z" fill="white"/>
</mask>
<g mask="url(#mask4_305_35)">
<path d="M501.263 229.933V22.5323" stroke="#808080" stroke-width="1.33333" stroke-dasharray="1.33 2.2"/>
</g>
<path d="M501.263 229.933V234.6Z" fill="#808080"/>
<path d="M501.263 229.933V234.6" stroke="#808080" stroke-width="1.06667"/>
<path d="M494.895 247.539C493.957 247.539 493.22 247.79 492.682 248.292C492.147 248.794 491.879 249.483 491.879 250.361C491.879 251.24 492.147 251.93 492.682 252.432C493.22 252.934 493.957 253.186 494.895 253.186C495.832 253.186 496.571 252.933 497.11 252.429C497.652 251.923 497.923 251.233 497.923 250.361C497.923 249.483 497.654 248.794 497.116 248.292C496.581 247.79 495.84 247.539 494.895 247.539ZM492.923 246.701C492.077 246.493 491.417 246.099 490.945 245.52C490.474 244.939 490.238 244.231 490.238 243.398C490.238 242.233 490.653 241.313 491.482 240.636C492.313 239.958 493.451 239.62 494.895 239.62C496.347 239.62 497.486 239.958 498.313 240.636C499.14 241.313 499.554 242.233 499.554 243.398C499.554 244.231 499.317 244.939 498.845 245.52C498.374 246.099 497.718 246.493 496.879 246.701C497.829 246.922 498.568 247.355 499.098 248.001C499.629 248.645 499.895 249.431 499.895 250.361C499.895 251.775 499.463 252.861 498.601 253.617C497.738 254.371 496.503 254.748 494.895 254.748C493.288 254.748 492.053 254.371 491.188 253.617C490.326 252.861 489.895 251.775 489.895 250.361C489.895 249.431 490.161 248.645 490.695 248.001C491.23 247.355 491.973 246.922 492.923 246.701ZM492.201 243.586C492.201 244.34 492.436 244.928 492.907 245.351C493.38 245.774 494.042 245.986 494.895 245.986C495.742 245.986 496.405 245.774 496.882 245.351C497.361 244.928 497.601 244.34 497.601 243.586C497.601 242.829 497.361 242.24 496.882 241.817C496.405 241.394 495.742 241.182 494.895 241.182C494.042 241.182 493.38 241.394 492.907 241.817C492.436 242.24 492.201 242.829 492.201 243.586Z" fill="#808080"/>
<path d="M507.619 241.182C506.604 241.182 505.841 241.682 505.328 242.682C504.818 243.68 504.563 245.182 504.563 247.189C504.563 249.187 504.818 250.686 505.328 251.686C505.841 252.686 506.604 253.186 507.619 253.186C508.642 253.186 509.409 252.686 509.919 251.686C510.432 250.686 510.688 249.187 510.688 247.189C510.688 245.182 510.432 243.68 509.919 242.682C509.409 241.682 508.642 241.182 507.619 241.182ZM507.619 239.62C509.254 239.62 510.503 240.267 511.366 241.561C512.228 242.852 512.66 244.728 512.66 247.189C512.66 249.643 512.228 251.517 511.366 252.811C510.503 254.102 509.254 254.748 507.619 254.748C505.986 254.748 504.738 254.102 503.875 252.811C503.013 251.517 502.582 249.643 502.582 247.189C502.582 244.728 503.013 242.852 503.875 241.561C504.738 240.267 505.986 239.62 507.619 239.62Z" fill="#808080"/>
<mask id="mask5_305_35" style="mask-type:luminance" maskUnits="userSpaceOnUse" x="81" y="22" width="538" height="208">
<path d="M618.333 22.5323H81.4248V229.933H618.333V22.5323Z" fill="white"/>
</mask>
<g mask="url(#mask5_305_35)">
<path d="M600.122 229.933V22.5323" stroke="#808080" stroke-width="1.33333" stroke-dasharray="1.33 2.2"/>
</g>
<path d="M600.122 229.933V234.6Z" fill="#808080"/>
<path d="M600.122 229.933V234.6" stroke="#808080" stroke-width="1.06667"/>
<path d="M583.515 252.804H586.737V241.679L583.231 242.382V240.586L586.718 239.882H588.69V252.804H591.912V254.464H583.515V252.804Z" fill="#808080"/>
<path d="M600.115 241.182C599.101 241.182 598.337 241.682 597.825 242.682C597.314 243.68 597.059 245.182 597.059 247.189C597.059 249.187 597.314 250.686 597.825 251.686C598.337 252.686 599.101 253.186 600.115 253.186C601.138 253.186 601.905 252.686 602.415 251.686C602.928 250.686 603.184 249.187 603.184 247.189C603.184 245.182 602.928 243.68 602.415 242.682C601.905 241.682 601.138 241.182 600.115 241.182ZM600.115 239.62C601.751 239.62 603 240.267 603.862 241.561C604.725 242.852 605.156 244.728 605.156 247.189C605.156 249.643 604.725 251.517 603.862 252.811C603 254.102 601.751 254.748 600.115 254.748C598.482 254.748 597.234 254.102 596.371 252.811C595.509 251.517 595.078 249.643 595.078 247.189C595.078 244.728 595.509 242.852 596.371 241.561C597.234 240.267 598.482 239.62 600.115 239.62Z" fill="#808080"/>
<path d="M612.84 241.182C611.825 241.182 611.062 241.682 610.549 242.682C610.039 243.68 609.783 245.182 609.783 247.189C609.783 249.187 610.039 250.686 610.549 251.686C611.062 252.686 611.825 253.186 612.84 253.186C613.863 253.186 614.629 252.686 615.14 251.686C615.652 250.686 615.908 249.187 615.908 247.189C615.908 245.182 615.652 243.68 615.14 242.682C614.629 241.682 613.863 241.182 612.84 241.182ZM612.84 239.62C614.475 239.62 615.724 240.267 616.587 241.561C617.449 242.852 617.88 244.728 617.88 247.189C617.88 249.643 617.449 251.517 616.587 252.811C615.724 254.102 614.475 254.748 612.84 254.748C611.206 254.748 609.958 254.102 609.096 252.811C608.233 251.517 607.802 249.643 607.802 247.189C607.802 244.728 608.233 242.852 609.096 241.561C609.958 240.267 611.206 239.62 612.84 239.62Z" fill="#808080"/>
<path d="M251.086 264.654H254.419L258.633 275.899L262.873 264.654H266.205V281.179H264.024V266.669L259.763 278.003H257.518L253.257 266.669V281.179H251.086V264.654Z" fill="black"/>
<path d="M275.356 270.211C274.266 270.211 273.403 270.637 272.767 271.489C272.132 272.342 271.815 273.509 271.815 274.992C271.815 276.475 272.13 277.643 272.76 278.495C273.393 279.347 274.258 279.773 275.356 279.773C276.442 279.773 277.302 279.346 277.935 278.491C278.57 277.634 278.887 276.468 278.887 274.992C278.887 273.524 278.57 272.36 277.935 271.5C277.302 270.641 276.442 270.211 275.356 270.211ZM275.356 268.486C277.127 268.486 278.518 269.062 279.528 270.214C280.541 271.364 281.048 272.957 281.048 274.992C281.048 277.02 280.541 278.613 279.528 279.77C278.518 280.924 277.127 281.502 275.356 281.502C273.578 281.502 272.185 280.924 271.177 279.77C270.171 278.613 269.668 277.02 269.668 274.992C269.668 272.957 270.171 271.364 271.177 270.214C272.185 269.062 273.578 268.486 275.356 268.486Z" fill="black"/>
<path d="M292.578 270.664V263.956H294.615V281.179H292.578V279.32C292.151 280.057 291.61 280.605 290.956 280.963C290.305 281.322 289.521 281.502 288.605 281.502C287.108 281.502 285.888 280.904 284.946 279.71C284.006 278.513 283.537 276.94 283.537 274.992C283.537 273.044 284.006 271.473 284.946 270.278C285.888 269.083 287.108 268.486 288.605 268.486C289.521 268.486 290.305 268.666 290.956 269.024C291.61 269.381 292.151 269.928 292.578 270.664ZM285.64 274.992C285.64 276.489 285.948 277.664 286.565 278.516C287.181 279.368 288.027 279.795 289.104 279.795C290.181 279.795 291.028 279.368 291.647 278.516C292.268 277.664 292.578 276.489 292.578 274.992C292.578 273.495 292.268 272.321 291.647 271.468C291.028 270.616 290.181 270.19 289.104 270.19C288.027 270.19 287.181 270.616 286.565 271.468C285.948 272.321 285.64 273.495 285.64 274.992Z" fill="black"/>
<path d="M298.81 268.784H300.847V281.179H298.81V268.784ZM298.81 263.956H300.847V266.538H298.81V263.956Z" fill="black"/>
<path d="M311.383 263.956V265.653H309.435C308.706 265.653 308.198 265.8 307.912 266.095C307.629 266.391 307.487 266.922 307.487 267.689V268.784H310.841V270.367H307.487V281.179H305.44V270.367H303.492V268.784H305.44V267.919C305.44 266.541 305.761 265.536 306.403 264.905C307.046 264.273 308.063 263.956 309.456 263.956H311.383Z" fill="black"/>
<path d="M313.087 268.784H315.124V281.179H313.087V268.784ZM313.087 263.956H315.124V266.538H313.087V263.956Z" fill="black"/>
<path d="M329.989 274.472V275.467H320.625C320.714 276.869 321.137 277.938 321.892 278.672C322.648 279.406 323.701 279.773 325.052 279.773C325.833 279.773 326.591 279.678 327.325 279.487C328.06 279.295 328.789 279.007 329.514 278.622V280.549C328.782 280.858 328.032 281.094 327.265 281.257C326.498 281.42 325.72 281.502 324.931 281.502C322.953 281.502 321.386 280.927 320.231 279.777C319.077 278.625 318.5 277.066 318.5 275.102C318.5 273.074 319.047 271.465 320.143 270.275C321.238 269.082 322.716 268.486 324.577 268.486C326.244 268.486 327.563 269.023 328.533 270.098C329.503 271.17 329.989 272.628 329.989 274.472ZM327.952 273.873C327.938 272.761 327.626 271.873 327.017 271.21C326.408 270.544 325.602 270.211 324.598 270.211C323.463 270.211 322.554 270.532 321.871 271.174C321.189 271.816 320.796 272.721 320.692 273.887L327.952 273.873Z" fill="black"/>
<path d="M341.487 270.664V263.956H343.523V281.179H341.487V279.32C341.059 280.057 340.519 280.605 339.865 280.963C339.213 281.322 338.429 281.502 337.513 281.502C336.016 281.502 334.796 280.904 333.854 279.71C332.915 278.513 332.445 276.94 332.445 274.992C332.445 273.044 332.915 271.473 333.854 270.278C334.796 269.083 336.016 268.486 337.513 268.486C338.429 268.486 339.213 268.666 339.865 269.024C340.519 269.381 341.059 269.928 341.487 270.664ZM334.549 274.992C334.549 276.489 334.857 277.664 335.473 278.516C336.089 279.368 336.936 279.795 338.012 279.795C339.089 279.795 339.937 279.368 340.555 278.516C341.176 277.664 341.487 276.489 341.487 274.992C341.487 273.495 341.176 272.321 340.555 271.468C339.937 270.616 339.089 270.19 338.012 270.19C336.936 270.19 336.089 270.616 335.473 271.468C334.857 272.321 334.549 273.495 334.549 274.992Z" fill="black"/>
<path d="M363.844 269.258V271.164C363.268 270.845 362.691 270.606 362.113 270.448C361.534 270.29 360.95 270.211 360.359 270.211C359.037 270.211 358.01 270.63 357.278 271.468C356.549 272.304 356.184 273.479 356.184 274.992C356.184 276.506 356.549 277.681 357.278 278.52C358.01 279.355 359.037 279.773 360.359 279.773C360.95 279.773 361.534 279.694 362.113 279.536C362.691 279.378 363.268 279.139 363.844 278.821V280.705C363.275 280.969 362.686 281.168 362.077 281.3C361.47 281.434 360.823 281.502 360.136 281.502C358.269 281.502 356.785 280.915 355.684 279.742C354.587 278.568 354.038 276.985 354.038 274.992C354.038 272.971 354.592 271.382 355.702 270.225C356.814 269.066 358.337 268.486 360.271 268.486C360.897 268.486 361.508 268.551 362.106 268.681C362.703 268.808 363.283 269.001 363.844 269.258Z" fill="black"/>
<path d="M372.188 270.211C371.097 270.211 370.234 270.637 369.599 271.489C368.964 272.342 368.646 273.509 368.646 274.992C368.646 276.475 368.961 277.643 369.592 278.495C370.225 279.347 371.09 279.773 372.188 279.773C373.274 279.773 374.133 279.346 374.766 278.491C375.401 277.634 375.719 276.468 375.719 274.992C375.719 273.524 375.401 272.36 374.766 271.5C374.133 270.641 373.274 270.211 372.188 270.211ZM372.188 268.486C373.959 268.486 375.349 269.062 376.36 270.214C377.373 271.364 377.879 272.957 377.879 274.992C377.879 277.02 377.373 278.613 376.36 279.77C375.349 280.924 373.959 281.502 372.188 281.502C370.41 281.502 369.017 280.924 368.009 279.77C367.003 278.613 366.5 277.02 366.5 274.992C366.5 272.957 367.003 271.364 368.009 270.214C369.017 269.062 370.41 268.486 372.188 268.486Z" fill="black"/>
<path d="M391.559 273.696V281.179H389.523V273.763C389.523 272.59 389.294 271.713 388.836 271.132C388.378 270.549 387.692 270.257 386.778 270.257C385.678 270.257 384.81 270.608 384.175 271.309C383.54 272.008 383.222 272.963 383.222 274.174V281.179H381.175V268.784H383.222V270.71C383.711 269.964 384.285 269.407 384.944 269.039C385.605 268.67 386.367 268.486 387.232 268.486C388.655 268.486 389.732 268.926 390.462 269.807C391.193 270.688 391.559 271.984 391.559 273.696Z" fill="black"/>
<path d="M401.895 263.956V265.653H399.947C399.217 265.653 398.71 265.8 398.424 266.095C398.141 266.391 397.999 266.922 397.999 267.689V268.784H401.353V270.367H397.999V281.179H395.952V270.367H394.004V268.784H395.952V267.919C395.952 266.541 396.273 265.536 396.915 264.905C397.557 264.273 398.575 263.956 399.968 263.956H401.895Z" fill="black"/>
<path d="M403.599 268.784H405.636V281.179H403.599V268.784ZM403.599 263.956H405.636V266.538H403.599V263.956Z" fill="black"/>
<path d="M418.053 274.836C418.053 273.361 417.749 272.218 417.139 271.408C416.533 270.596 415.679 270.19 414.579 270.19C413.488 270.19 412.638 270.596 412.029 271.408C411.42 272.218 411.115 273.361 411.115 274.836C411.115 276.305 411.42 277.445 412.029 278.258C412.638 279.07 413.488 279.476 414.579 279.476C415.679 279.476 416.533 279.07 417.139 278.258C417.749 277.445 418.053 276.305 418.053 274.836ZM420.09 279.642C420.09 281.751 419.621 283.32 418.684 284.349C417.749 285.379 416.314 285.893 414.38 285.893C413.665 285.893 412.99 285.84 412.355 285.734C411.719 285.628 411.103 285.464 410.506 285.242V283.262C411.103 283.585 411.693 283.824 412.277 283.977C412.86 284.133 413.454 284.211 414.058 284.211C415.394 284.211 416.394 283.863 417.058 283.166C417.721 282.47 418.053 281.417 418.053 280.007V278.998C417.633 279.73 417.094 280.276 416.438 280.638C415.782 280.999 414.995 281.179 414.079 281.179C412.561 281.179 411.337 280.601 410.407 279.444C409.476 278.285 409.011 276.749 409.011 274.836C409.011 272.919 409.476 271.382 410.407 270.225C411.337 269.066 412.561 268.486 414.079 268.486C414.995 268.486 415.782 268.667 416.438 269.028C417.094 269.389 417.633 269.935 418.053 270.664V268.784H420.09V279.642Z" fill="black"/>
<path d="M445.833 273.908C445.191 273.908 444.687 274.181 444.321 274.727C443.957 275.272 443.775 276.032 443.775 277.007C443.775 277.966 443.957 278.72 444.321 279.27C444.687 279.821 445.191 280.096 445.833 280.096C446.461 280.096 446.957 279.821 447.321 279.27C447.687 278.72 447.87 277.966 447.87 277.007C447.87 276.039 447.687 275.281 447.321 274.734C446.957 274.183 446.461 273.908 445.833 273.908ZM445.833 272.502C447 272.502 447.925 272.908 448.61 273.721C449.297 274.531 449.64 275.626 449.64 277.007C449.64 278.386 449.296 279.481 448.606 280.29C447.917 281.098 446.992 281.502 445.833 281.502C444.653 281.502 443.719 281.098 443.032 280.29C442.347 279.481 442.005 278.386 442.005 277.007C442.005 275.619 442.349 274.521 443.039 273.714C443.728 272.906 444.66 272.502 445.833 272.502ZM434.411 265.763C433.776 265.763 433.276 266.038 432.91 266.588C432.546 267.136 432.364 267.89 432.364 268.851C432.364 269.824 432.545 270.584 432.906 271.132C433.267 271.677 433.769 271.95 434.411 271.95C435.054 271.95 435.556 271.677 435.92 271.132C436.286 270.584 436.469 269.824 436.469 268.851C436.469 267.899 436.285 267.147 435.917 266.595C435.548 266.04 435.046 265.763 434.411 265.763ZM444.406 264.357H446.177L435.839 281.502H434.068L444.406 264.357ZM434.411 264.357C435.578 264.357 436.507 264.76 437.199 265.568C437.893 266.375 438.24 267.47 438.24 268.851C438.24 270.244 437.895 271.343 437.206 272.148C436.516 272.953 435.585 273.356 434.411 273.356C433.238 273.356 432.31 272.952 431.628 272.145C430.945 271.335 430.604 270.237 430.604 268.851C430.604 267.477 430.946 266.385 431.631 265.575C432.318 264.763 433.245 264.357 434.411 264.357Z" fill="black"/>
<mask id="mask6_305_35" style="mask-type:luminance" maskUnits="userSpaceOnUse" x="81" y="22" width="538" height="208">
<path d="M618.334 22.5323H81.4253V229.933H618.334V22.5323Z" fill="white"/>
</mask>
<g mask="url(#mask6_305_35)">
<path d="M81.4253 220.506H618.334" stroke="#808080" stroke-width="1.33333" stroke-dasharray="1.33 2.2"/>
</g>
<path d="M81.4255 220.506H76.7588Z" fill="#808080"/>
<path d="M81.4255 220.506H76.7588" stroke="#808080" stroke-width="1.06667"/>
<path d="M33.9169 214.823C32.9023 214.823 32.1388 215.323 31.6263 216.323C31.1159 217.321 30.8606 218.823 30.8606 220.83C30.8606 222.827 31.1159 224.326 31.6263 225.326C32.1388 226.326 32.9023 226.826 33.9169 226.826C34.9398 226.826 35.7065 226.326 36.2169 225.326C36.7294 224.326 36.9856 222.827 36.9856 220.83C36.9856 218.823 36.7294 217.321 36.2169 216.323C35.7065 215.323 34.9398 214.823 33.9169 214.823ZM33.9169 213.261C35.5523 213.261 36.8013 213.908 37.6638 215.201C38.5263 216.493 38.9575 218.369 38.9575 220.83C38.9575 223.284 38.5263 225.158 37.6638 226.451C36.8013 227.743 35.5523 228.389 33.9169 228.389C32.2836 228.389 31.0356 227.743 30.1731 226.451C29.3106 225.158 28.8794 223.284 28.8794 220.83C28.8794 218.369 29.3106 216.493 30.1731 215.201C31.0356 213.908 32.2836 213.261 33.9169 213.261Z" fill="#808080"/>
<path d="M42.4229 225.623H44.4854V228.105H42.4229V225.623Z" fill="#808080"/>
<path d="M52.9989 214.823C51.9843 214.823 51.2208 215.323 50.7083 216.323C50.1979 217.321 49.9427 218.823 49.9427 220.83C49.9427 222.827 50.1979 224.326 50.7083 225.326C51.2208 226.326 51.9843 226.826 52.9989 226.826C54.0218 226.826 54.7885 226.326 55.2989 225.326C55.8114 224.326 56.0677 222.827 56.0677 220.83C56.0677 218.823 55.8114 217.321 55.2989 216.323C54.7885 215.323 54.0218 214.823 52.9989 214.823ZM52.9989 213.261C54.6343 213.261 55.8833 213.908 56.7458 215.201C57.6083 216.493 58.0396 218.369 58.0396 220.83C58.0396 223.284 57.6083 225.158 56.7458 226.451C55.8833 227.743 54.6343 228.389 52.9989 228.389C51.3656 228.389 50.1177 227.743 49.2552 226.451C48.3927 225.158 47.9614 223.284 47.9614 220.83C47.9614 218.369 48.3927 216.493 49.2552 215.201C50.1177 213.908 51.3656 213.261 52.9989 213.261Z" fill="#808080"/>
<path d="M65.7235 214.823C64.709 214.823 63.9454 215.323 63.4329 216.323C62.9225 217.321 62.6673 218.823 62.6673 220.83C62.6673 222.827 62.9225 224.326 63.4329 225.326C63.9454 226.326 64.709 226.826 65.7235 226.826C66.7465 226.826 67.5131 226.326 68.0235 225.326C68.536 224.326 68.7923 222.827 68.7923 220.83C68.7923 218.823 68.536 217.321 68.0235 216.323C67.5131 215.323 66.7465 214.823 65.7235 214.823ZM65.7235 213.261C67.359 213.261 68.6079 213.908 69.4704 215.201C70.3329 216.493 70.7642 218.369 70.7642 220.83C70.7642 223.284 70.3329 225.158 69.4704 226.451C68.6079 227.743 67.359 228.389 65.7235 228.389C64.0902 228.389 62.8423 227.743 61.9798 226.451C61.1173 225.158 60.686 223.284 60.686 220.83C60.686 218.369 61.1173 216.493 61.9798 215.201C62.8423 213.908 64.0902 213.261 65.7235 213.261Z" fill="#808080"/>
<mask id="mask7_305_35" style="mask-type:luminance" maskUnits="userSpaceOnUse" x="81" y="22" width="538" height="208">
<path d="M618.334 22.5323H81.4253V229.933H618.334V22.5323Z" fill="white"/>
</mask>
<g mask="url(#mask7_305_35)">
<path d="M81.4253 173.369H618.334" stroke="#808080" stroke-width="1.33333" stroke-dasharray="1.33 2.2"/>
</g>
<path d="M81.4255 173.369H76.7588Z" fill="#808080"/>
<path d="M81.4255 173.369H76.7588" stroke="#808080" stroke-width="1.06667"/>
<path d="M33.9169 167.687C32.9023 167.687 32.1388 168.187 31.6263 169.187C31.1159 170.185 30.8606 171.687 30.8606 173.693C30.8606 175.691 31.1159 177.19 31.6263 178.19C32.1388 179.19 32.9023 179.69 33.9169 179.69C34.9398 179.69 35.7065 179.19 36.2169 178.19C36.7294 177.19 36.9856 175.691 36.9856 173.693C36.9856 171.687 36.7294 170.185 36.2169 169.187C35.7065 168.187 34.9398 167.687 33.9169 167.687ZM33.9169 166.124C35.5523 166.124 36.8013 166.771 37.6638 168.065C38.5263 169.356 38.9575 171.232 38.9575 173.693C38.9575 176.147 38.5263 178.021 37.6638 179.315C36.8013 180.606 35.5523 181.252 33.9169 181.252C32.2836 181.252 31.0356 180.606 30.1731 179.315C29.3106 178.021 28.8794 176.147 28.8794 173.693C28.8794 171.232 29.3106 169.356 30.1731 168.065C31.0356 166.771 32.2836 166.124 33.9169 166.124Z" fill="#808080"/>
<path d="M42.4229 178.487H44.4854V180.968H42.4229V178.487Z" fill="#808080"/>
<path d="M50.4803 179.309H57.3646V180.968H48.1084V179.309C48.8563 178.534 49.8761 177.494 51.1678 176.19C52.4615 174.884 53.274 174.041 53.6053 173.662C54.2365 172.953 54.6771 172.353 54.9271 171.862C55.1792 171.37 55.3053 170.887 55.3053 170.412C55.3053 169.637 55.0334 169.005 54.4896 168.518C53.9459 168.028 53.2376 167.784 52.3646 167.784C51.7459 167.784 51.0928 167.891 50.4053 168.105C49.7199 168.32 48.9865 168.646 48.2053 169.084V167.09C48.999 166.771 49.7407 166.53 50.4303 166.368C51.1219 166.205 51.7542 166.124 52.3271 166.124C53.8376 166.124 55.0417 166.502 55.9396 167.259C56.8376 168.013 57.2865 169.021 57.2865 170.284C57.2865 170.884 57.174 171.452 56.949 171.99C56.7261 172.525 56.3178 173.157 55.724 173.887C55.5615 174.076 55.0438 174.622 54.1709 175.524C53.3001 176.426 52.0699 177.688 50.4803 179.309Z" fill="#808080"/>
<path d="M61.5268 166.387H69.2705V168.049H63.333V171.621C63.6184 171.523 63.9038 171.45 64.1893 171.402C64.4768 171.354 64.7643 171.33 65.0518 171.33C66.6788 171.33 67.9674 171.776 68.9174 172.668C69.8695 173.56 70.3455 174.767 70.3455 176.29C70.3455 177.859 69.857 179.078 68.8799 179.949C67.9028 180.818 66.5257 181.252 64.7486 181.252C64.1361 181.252 63.5122 181.2 62.8768 181.096C62.2434 180.992 61.5882 180.836 60.9111 180.627V178.643C61.4965 178.962 62.1018 179.199 62.7268 179.355C63.3518 179.512 64.0122 179.59 64.708 179.59C65.8351 179.59 66.7268 179.294 67.383 178.702C68.0413 178.111 68.3705 177.306 68.3705 176.29C68.3705 175.275 68.0413 174.472 67.383 173.88C66.7268 173.287 65.8351 172.99 64.708 172.99C64.1809 172.99 63.6549 173.048 63.1299 173.165C62.607 173.281 62.0726 173.464 61.5268 173.712V166.387Z" fill="#808080"/>
<mask id="mask8_305_35" style="mask-type:luminance" maskUnits="userSpaceOnUse" x="81" y="22" width="538" height="208">
<path d="M618.334 22.5323H81.4253V229.933H618.334V22.5323Z" fill="white"/>
</mask>
<g mask="url(#mask8_305_35)">
<path d="M81.4253 126.233H618.334" stroke="#808080" stroke-width="1.33333" stroke-dasharray="1.33 2.2"/>
</g>
<path d="M81.4255 126.233H76.7588Z" fill="#808080"/>
<path d="M81.4255 126.233H76.7588" stroke="#808080" stroke-width="1.06667"/>
<path d="M33.9169 120.55C32.9023 120.55 32.1388 121.05 31.6263 122.05C31.1159 123.048 30.8606 124.55 30.8606 126.556C30.8606 128.554 31.1159 130.053 31.6263 131.053C32.1388 132.053 32.9023 132.553 33.9169 132.553C34.9398 132.553 35.7065 132.053 36.2169 131.053C36.7294 130.053 36.9856 128.554 36.9856 126.556C36.9856 124.55 36.7294 123.048 36.2169 122.05C35.7065 121.05 34.9398 120.55 33.9169 120.55ZM33.9169 118.988C35.5523 118.988 36.8013 119.634 37.6638 120.928C38.5263 122.22 38.9575 124.096 38.9575 126.556C38.9575 129.01 38.5263 130.884 37.6638 132.178C36.8013 133.47 35.5523 134.116 33.9169 134.116C32.2836 134.116 31.0356 133.47 30.1731 132.178C29.3106 130.884 28.8794 129.01 28.8794 126.556C28.8794 124.096 29.3106 122.22 30.1731 120.928C31.0356 119.634 32.2836 118.988 33.9169 118.988Z" fill="#808080"/>
<path d="M42.4229 131.35H44.4854V133.831H42.4229V131.35Z" fill="#808080"/>
<path d="M48.8021 119.25H56.5459V120.913H50.6084V124.484C50.8938 124.386 51.1792 124.314 51.4646 124.266C51.7521 124.218 52.0396 124.194 52.3271 124.194C53.9542 124.194 55.2428 124.64 56.1928 125.531C57.1449 126.423 57.6209 127.63 57.6209 129.153C57.6209 130.722 57.1324 131.942 56.1553 132.813C55.1782 133.681 53.8011 134.116 52.024 134.116C51.4115 134.116 50.7876 134.064 50.1521 133.959C49.5188 133.855 48.8636 133.699 48.1865 133.491V131.506C48.7719 131.825 49.3771 132.063 50.0021 132.219C50.6271 132.375 51.2876 132.453 51.9834 132.453C53.1105 132.453 54.0021 132.157 54.6584 131.566C55.3167 130.974 55.6459 130.17 55.6459 129.153C55.6459 128.139 55.3167 127.335 54.6584 126.744C54.0021 126.15 53.1105 125.853 51.9834 125.853C51.4563 125.853 50.9303 125.911 50.4053 126.028C49.8824 126.145 49.348 126.327 48.8021 126.575V119.25Z" fill="#808080"/>
<path d="M65.7235 120.55C64.709 120.55 63.9454 121.05 63.4329 122.05C62.9225 123.048 62.6673 124.55 62.6673 126.556C62.6673 128.554 62.9225 130.053 63.4329 131.053C63.9454 132.053 64.709 132.553 65.7235 132.553C66.7465 132.553 67.5131 132.053 68.0235 131.053C68.536 130.053 68.7923 128.554 68.7923 126.556C68.7923 124.55 68.536 123.048 68.0235 122.05C67.5131 121.05 66.7465 120.55 65.7235 120.55ZM65.7235 118.988C67.359 118.988 68.6079 119.634 69.4704 120.928C70.3329 122.22 70.7642 124.096 70.7642 126.556C70.7642 129.01 70.3329 130.884 69.4704 132.178C68.6079 133.47 67.359 134.116 65.7235 134.116C64.0902 134.116 62.8423 133.47 61.9798 132.178C61.1173 130.884 60.686 129.01 60.686 126.556C60.686 124.096 61.1173 122.22 61.9798 120.928C62.8423 119.634 64.0902 118.988 65.7235 118.988Z" fill="#808080"/>
<mask id="mask9_305_35" style="mask-type:luminance" maskUnits="userSpaceOnUse" x="81" y="22" width="538" height="208">
<path d="M618.334 22.5323H81.4253V229.933H618.334V22.5323Z" fill="white"/>
</mask>
<g mask="url(#mask9_305_35)">
<path d="M81.4253 79.0962H618.334" stroke="#808080" stroke-width="1.33333" stroke-dasharray="1.33 2.2"/>
</g>
<path d="M81.4255 79.0962H76.7588Z" fill="#808080"/>
<path d="M81.4255 79.0962H76.7588" stroke="#808080" stroke-width="1.06667"/>
<path d="M33.9169 73.4134C32.9023 73.4134 32.1388 73.9134 31.6263 74.9134C31.1159 75.9113 30.8606 77.4134 30.8606 79.4197C30.8606 81.4176 31.1159 82.9165 31.6263 83.9165C32.1388 84.9165 32.9023 85.4165 33.9169 85.4165C34.9398 85.4165 35.7065 84.9165 36.2169 83.9165C36.7294 82.9165 36.9856 81.4176 36.9856 79.4197C36.9856 77.4134 36.7294 75.9113 36.2169 74.9134C35.7065 73.9134 34.9398 73.4134 33.9169 73.4134ZM33.9169 71.8509C35.5523 71.8509 36.8013 72.4978 37.6638 73.7915C38.5263 75.0832 38.9575 76.9593 38.9575 79.4197C38.9575 81.8738 38.5263 83.7478 37.6638 85.0415C36.8013 86.3332 35.5523 86.979 33.9169 86.979C32.2836 86.979 31.0356 86.3332 30.1731 85.0415C29.3106 83.7478 28.8794 81.8738 28.8794 79.4197C28.8794 76.9593 29.3106 75.0832 30.1731 73.7915C31.0356 72.4978 32.2836 71.8509 33.9169 71.8509Z" fill="#808080"/>
<path d="M42.4229 84.2134H44.4854V86.6947H42.4229V84.2134Z" fill="#808080"/>
<path d="M48.2832 72.1134H57.6582V72.954L52.3645 86.6947H50.3051L55.2863 73.7759H48.2832V72.1134Z" fill="#808080"/>
<path d="M61.5268 72.1134H69.2705V73.7759H63.333V77.3478C63.6184 77.2499 63.9038 77.177 64.1893 77.129C64.4768 77.0811 64.7643 77.0572 65.0518 77.0572C66.6788 77.0572 67.9674 77.503 68.9174 78.3947C69.8695 79.2863 70.3455 80.4936 70.3455 82.0165C70.3455 83.5853 69.857 84.8051 68.8799 85.6759C67.9028 86.5447 66.5257 86.979 64.7486 86.979C64.1361 86.979 63.5122 86.927 62.8768 86.8228C62.2434 86.7186 61.5882 86.5624 60.9111 86.354V84.3697C61.4965 84.6884 62.1018 84.9259 62.7268 85.0822C63.3518 85.2384 64.0122 85.3165 64.708 85.3165C65.8351 85.3165 66.7268 85.0207 67.383 84.429C68.0413 83.8374 68.3705 83.0332 68.3705 82.0165C68.3705 81.002 68.0413 80.1988 67.383 79.6072C66.7268 79.0134 65.8351 78.7165 64.708 78.7165C64.1809 78.7165 63.6549 78.7749 63.1299 78.8915C62.607 79.0082 62.0726 79.1905 61.5268 79.4384V72.1134Z" fill="#808080"/>
<mask id="mask10_305_35" style="mask-type:luminance" maskUnits="userSpaceOnUse" x="81" y="22" width="538" height="208">
<path d="M618.333 22.5323H81.4248V229.933H618.333V22.5323Z" fill="white"/>
</mask>
<g mask="url(#mask10_305_35)">
<path d="M81.4248 31.9596H618.334" stroke="#808080" stroke-width="1.33333" stroke-dasharray="1.33 2.2"/>
</g>
<path d="M81.425 31.9596H76.7583Z" fill="#808080"/>
<path d="M81.425 31.9596H76.7583" stroke="#808080" stroke-width="1.06667"/>
<path d="M30.0417 37.8987H33.2636V26.7737L29.7573 27.4768V25.6799L33.2448 24.9768H35.2167V37.8987H38.4386V39.5581H30.0417V37.8987Z" fill="#808080"/>
<path d="M42.4224 37.0768H44.4849V39.5581H42.4224V37.0768Z" fill="#808080"/>
<path d="M52.9989 26.2768C51.9843 26.2768 51.2208 26.7768 50.7083 27.7768C50.1979 28.7747 49.9427 30.2768 49.9427 32.2831C49.9427 34.281 50.1979 35.7799 50.7083 36.7799C51.2208 37.7799 51.9843 38.2799 52.9989 38.2799C54.0218 38.2799 54.7885 37.7799 55.2989 36.7799C55.8114 35.7799 56.0677 34.281 56.0677 32.2831C56.0677 30.2768 55.8114 28.7747 55.2989 27.7768C54.7885 26.7768 54.0218 26.2768 52.9989 26.2768ZM52.9989 24.7143C54.6343 24.7143 55.8833 25.3612 56.7458 26.6549C57.6083 27.9466 58.0396 29.8226 58.0396 32.2831C58.0396 34.7372 57.6083 36.6112 56.7458 37.9049C55.8833 39.1966 54.6343 39.8424 52.9989 39.8424C51.3656 39.8424 50.1177 39.1966 49.2552 37.9049C48.3927 36.6112 47.9614 34.7372 47.9614 32.2831C47.9614 29.8226 48.3927 27.9466 49.2552 26.6549C50.1177 25.3612 51.3656 24.7143 52.9989 24.7143Z" fill="#808080"/>
<path d="M65.7235 26.2768C64.709 26.2768 63.9454 26.7768 63.4329 27.7768C62.9225 28.7747 62.6673 30.2768 62.6673 32.2831C62.6673 34.281 62.9225 35.7799 63.4329 36.7799C63.9454 37.7799 64.709 38.2799 65.7235 38.2799C66.7465 38.2799 67.5131 37.7799 68.0235 36.7799C68.536 35.7799 68.7923 34.281 68.7923 32.2831C68.7923 30.2768 68.536 28.7747 68.0235 27.7768C67.5131 26.7768 66.7465 26.2768 65.7235 26.2768ZM65.7235 24.7143C67.359 24.7143 68.6079 25.3612 69.4704 26.6549C70.3329 27.9466 70.7642 29.8226 70.7642 32.2831C70.7642 34.7372 70.3329 36.6112 69.4704 37.9049C68.6079 39.1966 67.359 39.8424 65.7235 39.8424C64.0902 39.8424 62.8423 39.1966 61.9798 37.9049C61.1173 36.6112 60.686 34.7372 60.686 32.2831C60.686 29.8226 61.1173 27.9466 61.9798 26.6549C62.8423 25.3612 64.0902 24.7143 65.7235 24.7143Z" fill="#808080"/>
<path d="M2.26274 237.725H4.61795C3.9167 238.478 3.39371 239.28 3.04899 240.133C2.70191 240.985 2.52837 241.891 2.52837 242.849C2.52837 244.738 3.10566 246.184 4.26024 247.188C5.41482 248.191 7.08413 248.693 9.26816 248.693C11.4451 248.693 13.1109 248.191 14.2654 247.188C15.42 246.184 15.9973 244.738 15.9973 242.849C15.9973 241.891 15.8238 240.985 15.4767 240.133C15.1296 239.28 14.6054 238.478 13.9042 237.725H16.2417C16.7729 238.506 17.172 239.335 17.4388 240.211C17.7032 241.084 17.8354 242.008 17.8354 242.98C17.8354 245.483 17.0704 247.455 15.5404 248.895C14.0081 250.333 11.9173 251.052 9.26816 251.052C6.61191 251.052 4.51878 250.333 2.98878 248.895C1.45642 247.455 0.69024 245.483 0.69024 242.98C0.69024 241.993 0.821282 241.063 1.08337 240.19C1.34545 239.314 1.73857 238.492 2.26274 237.725Z" fill="black"/>
<path d="M12.6221 234.57H5.11732V232.533H12.5442C13.7177 232.533 14.5984 232.305 15.1863 231.85C15.7718 231.392 16.0646 230.705 16.0646 229.789C16.0646 228.691 15.714 227.823 15.0127 227.185C14.3115 226.546 13.3552 226.226 12.144 226.226H5.11732V224.189H17.5132V226.226H15.6077C16.3609 226.719 16.9205 227.293 17.2865 227.947C17.6525 228.599 17.8354 229.356 17.8354 230.221C17.8354 231.644 17.3927 232.726 16.5073 233.465C15.6219 234.201 14.3268 234.57 12.6221 234.57Z" fill="black"/>
<path d="M7.49735 210.344C6.58124 209.834 5.90596 209.225 5.47152 208.516C5.03707 207.808 4.81985 206.975 4.81985 206.016C4.81985 204.724 5.272 203.728 6.17631 203.027C7.07825 202.326 8.3627 201.975 10.0296 201.975H17.5132V204.022H10.0969C8.90929 204.022 8.0286 204.233 7.45485 204.656C6.87874 205.076 6.59068 205.717 6.59068 206.579C6.59068 207.635 6.94131 208.469 7.64256 209.083C8.34145 209.695 9.29652 210 10.5078 210H17.5132V212.047H10.0969C8.90221 212.047 8.01915 212.258 7.44777 212.678C6.87638 213.098 6.59068 213.747 6.59068 214.626C6.59068 215.667 6.94249 216.495 7.6461 217.108C8.34971 217.72 9.3036 218.026 10.5078 218.026H17.5132V220.073H5.11735V218.026H7.04402C6.28374 217.561 5.72297 217.003 5.36172 216.354C5.00047 215.705 4.81985 214.934 4.81985 214.041C4.81985 213.139 5.04888 212.373 5.50693 211.743C5.96263 211.112 6.6261 210.646 7.49735 210.344Z" fill="black"/>
<path d="M12.6221 198.124H5.11732V196.087H12.5442C13.7177 196.087 14.5984 195.86 15.1863 195.404C15.7718 194.946 16.0646 194.259 16.0646 193.343C16.0646 192.245 15.714 191.377 15.0127 190.739C14.3115 190.1 13.3552 189.78 12.144 189.78H5.11732V187.743H17.5132V189.78H15.6077C16.3609 190.273 16.9205 190.847 17.2865 191.501C17.6525 192.153 17.8354 192.91 17.8354 193.775C17.8354 195.198 17.3927 196.28 16.5073 197.019C15.6219 197.755 14.3268 198.124 12.6221 198.124Z" fill="black"/>
<path d="M0.290058 183.549V181.513H17.5132V183.549H0.290058Z" fill="black"/>
<path d="M11.2834 171.617C11.2834 173.262 11.4711 174.403 11.8465 175.038C12.2219 175.673 12.8641 175.991 13.7732 175.991C14.4957 175.991 15.0694 175.752 15.4944 175.275C15.917 174.798 16.1284 174.151 16.1284 173.334C16.1284 172.203 15.7282 171.297 14.9277 170.614C14.1273 169.932 13.0636 169.591 11.7367 169.591H11.2834V171.617ZM10.4404 167.554H17.5132V169.591H15.6325C16.3834 170.056 16.9382 170.636 17.2971 171.33C17.656 172.024 17.8354 172.873 17.8354 173.876C17.8354 175.144 17.4789 176.154 16.7659 176.904C16.0528 177.653 15.0989 178.027 13.9042 178.027C12.5111 178.027 11.4604 177.561 10.7521 176.628C10.0438 175.693 9.68962 174.3 9.68962 172.449V169.591H9.48774C8.55038 169.591 7.82552 169.899 7.31316 170.515C6.8008 171.131 6.54462 171.997 6.54462 173.111C6.54462 173.82 6.62962 174.51 6.79962 175.183C6.96962 175.854 7.22462 176.498 7.56462 177.117H5.68045C5.39239 176.373 5.17753 175.651 5.03587 174.949C4.89184 174.248 4.81982 173.566 4.81982 172.902C4.81982 171.108 5.28496 169.768 6.21524 168.882C7.14316 167.997 8.55156 167.554 10.4404 167.554Z" fill="black"/>
<path d="M1.59693 161.346H5.11735V157.153H6.70047V161.346H13.4296C14.4402 161.346 15.0895 161.208 15.3776 160.932C15.6656 160.656 15.8096 160.093 15.8096 159.243V157.153H17.5132V159.243C17.5132 160.815 17.2204 161.9 16.6349 162.497C16.0469 163.095 14.9785 163.393 13.4296 163.393H6.70047V164.888H5.11735V163.393H1.59693V161.346Z" fill="black"/>
<path d="M10.8052 143.87H11.8004V153.235C13.2029 153.145 14.2714 152.722 15.0057 151.967C15.74 151.211 16.1071 150.158 16.1071 148.807C16.1071 148.026 16.0115 147.268 15.8202 146.534C15.629 145.799 15.3409 145.07 14.9561 144.345H16.8827C17.192 145.077 17.4282 145.827 17.5911 146.594C17.754 147.361 17.8354 148.139 17.8354 148.928C17.8354 150.906 17.2605 152.473 16.1107 153.628C14.9584 154.782 13.4001 155.36 11.4357 155.36C9.40746 155.36 7.79837 154.812 6.60837 153.716C5.416 152.621 4.81982 151.143 4.81982 149.282C4.81982 147.615 5.35698 146.296 6.43128 145.326C7.50323 144.356 8.96121 143.87 10.8052 143.87ZM10.2067 145.907C9.09462 145.921 8.20684 146.233 7.54337 146.842C6.87753 147.451 6.54462 148.257 6.54462 149.261C6.54462 150.396 6.86573 151.305 7.50795 151.988C8.15017 152.67 9.05448 153.063 10.2209 153.167L10.2067 145.907Z" fill="black"/>
<path d="M6.99795 132.372H0.290032V130.336H17.5132V132.372H15.6538C16.3904 132.8 16.9382 133.34 17.2971 133.994C17.656 134.646 17.8354 135.43 17.8354 136.346C17.8354 137.843 17.2381 139.063 16.0434 140.005C14.8463 140.944 13.2738 141.414 11.3259 141.414C9.37795 141.414 7.80663 140.944 6.61191 140.005C5.41718 139.063 4.81982 137.843 4.81982 136.346C4.81982 135.43 4.99927 134.646 5.35816 133.994C5.71468 133.34 6.26128 132.8 6.99795 132.372ZM11.3259 139.31C12.8228 139.31 13.9975 139.002 14.8498 138.386C15.7022 137.77 16.1284 136.923 16.1284 135.847C16.1284 134.77 15.7022 133.922 14.8498 133.304C13.9975 132.683 12.8228 132.372 11.3259 132.372C9.82892 132.372 8.65427 132.683 7.80191 133.304C6.94955 133.922 6.52337 134.77 6.52337 135.847C6.52337 136.923 6.94955 137.77 7.80191 138.386C8.65427 139.002 9.82892 139.31 11.3259 139.31Z" fill="black"/>
<path d="M15.6537 116.967H22.2271V119.014H5.11726V116.967H6.99788C6.26122 116.537 5.71462 115.996 5.35809 115.344C4.9992 114.69 4.81976 113.91 4.81976 113.003C4.81976 111.497 5.41712 110.274 6.61184 109.334C7.80657 108.392 9.37788 107.921 11.3258 107.921C13.2737 107.921 14.8462 108.392 16.0433 109.334C17.238 110.274 17.8354 111.497 17.8354 113.003C17.8354 113.91 17.6559 114.69 17.2971 115.344C16.9382 115.996 16.3904 116.537 15.6537 116.967ZM11.3258 110.035C9.82886 110.035 8.6542 110.344 7.80184 110.96C6.94948 111.576 6.5233 112.423 6.5233 113.499C6.5233 114.578 6.94948 115.426 7.80184 116.042C8.6542 116.658 9.82886 116.967 11.3258 116.967C12.8227 116.967 13.9974 116.658 14.8498 116.042C15.7021 115.426 16.1283 114.578 16.1283 113.499C16.1283 112.423 15.7021 111.576 14.8498 110.96C13.9974 110.344 12.8227 110.035 11.3258 110.035Z" fill="black"/>
<path d="M7.01922 97.3652C6.887 97.5942 6.7902 97.8433 6.72881 98.1125C6.66506 98.3816 6.63318 98.678 6.63318 99.0014C6.63318 100.154 7.00742 101.038 7.75589 101.654C8.50436 102.27 9.57985 102.579 10.9823 102.579H17.5132V104.626H5.11735V102.579H7.04402C6.29082 102.149 5.73242 101.592 5.36881 100.907C5.00284 100.22 4.81985 99.3851 4.81985 98.4029C4.81985 98.2636 4.82929 98.1089 4.84818 97.9389C4.86471 97.7689 4.89186 97.5812 4.92964 97.3758L7.01922 97.3652Z" fill="black"/>
<path d="M6.54462 90.9362C6.54462 92.027 6.9708 92.89 7.82316 93.5251C8.67552 94.1602 9.84309 94.4778 11.3259 94.4778C12.8086 94.4778 13.9762 94.1626 14.8286 93.5322C15.6809 92.8994 16.1071 92.0341 16.1071 90.9362C16.1071 89.85 15.6798 88.9906 14.825 88.3578C13.9679 87.7227 12.8016 87.4051 11.3259 87.4051C9.85725 87.4051 8.69323 87.7227 7.83378 88.3578C6.97434 88.9906 6.54462 89.85 6.54462 90.9362ZM4.81982 90.9362C4.81982 89.1653 5.39593 87.7746 6.54816 86.7641C7.69802 85.7512 9.29059 85.2447 11.3259 85.2447C13.3541 85.2447 14.9466 85.7512 16.1036 86.7641C17.2582 87.7746 17.8354 89.1653 17.8354 90.9362C17.8354 92.7141 17.2582 94.1071 16.1036 95.1153C14.9466 96.1212 13.3541 96.6241 11.3259 96.6241C9.29059 96.6241 7.69802 96.1212 6.54816 95.1153C5.39593 94.1071 4.81982 92.7141 4.81982 90.9362Z" fill="black"/>
<path d="M11.3259 72.9706C9.82892 72.9706 8.65427 73.2787 7.80191 73.895C6.94955 74.5112 6.52337 75.3577 6.52337 76.4344C6.52337 77.5134 6.94955 78.361 7.80191 78.9773C8.65427 79.5935 9.82892 79.9017 11.3259 79.9017C12.8228 79.9017 13.9975 79.5935 14.8498 78.9773C15.7022 78.361 16.1284 77.5134 16.1284 76.4344C16.1284 75.3577 15.7022 74.5112 14.8498 73.895C13.9975 73.2787 12.8228 72.9706 11.3259 72.9706ZM6.99795 79.9017C6.26128 79.4719 5.71468 78.9312 5.35816 78.2796C4.99927 77.6256 4.81982 76.8452 4.81982 75.9385C4.81982 74.4321 5.41718 73.2091 6.61191 72.2694C7.80663 71.3273 9.37795 70.8562 11.3259 70.8562C13.2738 70.8562 14.8463 71.3273 16.0434 72.2694C17.2381 73.2091 17.8354 74.4321 17.8354 75.9385C17.8354 76.8452 17.656 77.6256 17.2971 78.2796C16.9382 78.9312 16.3904 79.4719 15.6538 79.9017H17.5132V81.9487H0.290032V79.9017H6.99795Z" fill="black"/>
<path d="M11.2834 61.848C11.2834 63.4937 11.4711 64.6341 11.8465 65.2693C12.2219 65.9044 12.8641 66.222 13.7732 66.222C14.4957 66.222 15.0694 65.9835 15.4944 65.5065C15.917 65.0296 16.1284 64.3827 16.1284 63.5657C16.1284 62.4347 15.7282 61.5281 14.9277 60.8457C14.1273 60.1634 13.0636 59.8222 11.7367 59.8222H11.2834V61.848ZM10.4404 57.7857H17.5132V59.8222H15.6325C16.3834 60.2873 16.9382 60.867 17.2971 61.5611C17.656 62.2553 17.8354 63.1041 17.8354 64.1076C17.8354 65.3755 17.4789 66.3849 16.7659 67.1357C16.0528 67.8842 15.0989 68.2584 13.9042 68.2584C12.5111 68.2584 11.4604 67.7921 10.7521 66.8595C10.0438 65.9245 9.68962 64.5314 9.68962 62.6803V59.8222H9.48774C8.55038 59.8222 7.82552 60.1303 7.31316 60.7465C6.8008 61.3628 6.54462 62.2281 6.54462 63.3426C6.54462 64.0509 6.62962 64.7415 6.79962 65.4145C6.96962 66.085 7.22462 66.7296 7.56462 67.3482H5.68045C5.39239 66.6045 5.17753 65.882 5.03587 65.1807C4.89184 64.4795 4.81982 63.7971 4.81982 63.1336C4.81982 61.3392 5.28496 59.9993 6.21524 59.1138C7.14316 58.2284 8.55156 57.7857 10.4404 57.7857Z" fill="black"/>
<path d="M11.3259 44.6926C9.82892 44.6926 8.65427 45.0007 7.80191 45.617C6.94955 46.2332 6.52337 47.0797 6.52337 48.1564C6.52337 49.2354 6.94955 50.083 7.80191 50.6993C8.65427 51.3155 9.82892 51.6236 11.3259 51.6236C12.8228 51.6236 13.9975 51.3155 14.8498 50.6993C15.7022 50.083 16.1284 49.2354 16.1284 48.1564C16.1284 47.0797 15.7022 46.2332 14.8498 45.617C13.9975 45.0007 12.8228 44.6926 11.3259 44.6926ZM6.99795 51.6236C6.26128 51.1939 5.71468 50.6532 5.35816 50.0016C4.99927 49.3475 4.81982 48.5672 4.81982 47.6605C4.81982 46.1541 5.41718 44.9311 6.61191 43.9914C7.80663 43.0493 9.37795 42.5782 11.3259 42.5782C13.2738 42.5782 14.8463 43.0493 16.0434 43.9914C17.2381 44.9311 17.8354 46.1541 17.8354 47.6605C17.8354 48.5672 17.656 49.3475 17.2971 50.0016C16.9382 50.6532 16.3904 51.1939 15.6538 51.6236H17.5132V53.6707H0.290032V51.6236H6.99795Z" fill="black"/>
<path d="M5.11735 39.2048V37.1683H17.5132V39.2048H5.11735ZM0.290058 39.2048V37.1683H2.87193V39.2048H0.290058Z" fill="black"/>
<path d="M0.290058 32.9073V30.8708H17.5132V32.9073H0.290058Z" fill="black"/>
<path d="M5.11735 26.6098V24.5733H17.5132V26.6098H5.11735ZM0.290058 26.6098V24.5733H2.87193V26.6098H0.290058Z" fill="black"/>
<path d="M1.59693 18.297H5.11735V14.1037H6.70047V18.297H13.4296C14.4402 18.297 15.0895 18.1589 15.3776 17.8826C15.6656 17.6064 15.8096 17.0433 15.8096 16.1933V14.1037H17.5132V16.1933C17.5132 17.7658 17.2204 18.8507 16.6349 19.4481C16.0469 20.0454 14.9785 20.3441 13.4296 20.3441H6.70047V21.8387H5.11735V20.3441H1.59693V18.297Z" fill="black"/>
<path d="M18.6641 6.2682C20.1398 6.84195 21.102 7.40271 21.5506 7.95049C22.0016 8.49591 22.2271 9.22549 22.2271 10.1392V11.7684H20.5235V10.5713C20.5235 10.0117 20.3901 9.5773 20.1233 9.26799C19.8589 8.95632 19.232 8.61278 18.2427 8.23737L17.3148 7.87257L5.11726 12.884V10.7272L14.8108 6.85257L5.11726 2.97799V0.821115L18.6641 6.2682Z" fill="black"/>
<mask id="mask11_305_35" style="mask-type:luminance" maskUnits="userSpaceOnUse" x="81" y="22" width="538" height="208">
<path d="M618.333 22.5323H81.4248V229.933H618.333V22.5323Z" fill="white"/>
</mask>
<g mask="url(#mask11_305_35)">
<path d="M105.83 220.506L107.235 218.935L107.347 217.364L107.487 215.792L109.776 214.221L111.379 212.65L111.504 211.079L113.431 209.508L113.757 207.936L113.799 206.365L114.706 204.794L115.199 203.223L115.362 201.651L115.838 200.08L116.533 198.509L116.654 196.938L116.752 195.367L117.235 193.795L118.823 192.224L119.51 190.653L120.046 189.082L120.261 187.51L121.728 185.939L122.679 184.368L122.744 182.797L123.147 181.226L126.236 179.654L128.172 178.083L130.536 176.512L133.659 174.941L134.877 173.369L137.51 171.798L139.125 170.227L139.484 168.656L141.25 167.085L141.7 165.513L143.749 163.942L143.869 162.371L145.241 160.8L145.323 159.228L145.445 157.657L147.148 156.086L147.984 154.515L148.045 152.944L148.865 151.372L150.545 149.801L153.432 148.23L153.589 146.659L153.598 145.088L154.089 143.516L154.17 141.945L154.648 140.374L155.14 138.803L158.984 137.231L160.496 135.66L162.192 134.089L162.2 132.518L162.591 130.947L165.006 129.375L165.695 127.804L166.16 126.233L167.321 124.662L167.453 123.09L168.291 121.519L170.503 119.948L170.507 118.377L171.195 116.806L171.715 115.234L172.355 113.663L173.583 112.092L175.042 110.521L175.601 108.949L176.662 107.378L176.829 105.807L177.707 104.236L178.538 102.665L179.206 101.093L179.69 99.5221L179.729 97.9509L180.897 96.3797L188.839 94.8084L189.32 93.2372L189.706 91.666L192.903 90.0948L194.676 88.5236L194.731 86.9523L197.706 85.3811L202.704 83.8099L203.048 82.2387L205.546 80.6675L206.691 79.0962L209.584 77.525L212.066 75.9538L213.079 74.3826L214.04 72.8113L220.988 71.2401L222.87 69.6689L236.18 68.0977L238.051 66.5265L238.852 64.9552L239.876 63.384L253.619 61.8128L263.987 60.2416L272.062 58.6704L275.579 57.0991L282.153 55.5279L285.052 53.9567L285.824 52.3855L315.447 50.8143L318.771 49.243L332.144 47.6718L340.108 46.1006L352.13 44.5294L363.636 42.9582L389.119 41.3869L407.448 39.8157L454.58 38.2445L558.51 36.6733L559.418 35.1021L584.31 33.5308L593.928 31.9596" stroke="#1F77B4" stroke-width="2" stroke-linecap="square"/>
</g>
<path d="M81.4248 229.933V22.5323" stroke="#808080" stroke-width="1.06667" stroke-linecap="square"/>
<path d="M81.4248 229.933H618.334" stroke="#808080" stroke-width="1.06667" stroke-linecap="square"/>
</svg>
